# xmcd
#
# Track frame offsets:
#  182
#  10087
#  11092
#  12035
#  12872
#  15070
#  16392
#  17277
#  18670
#  20680
#  21675
#  24265
#  25702
#  26992
#  29192
#  30760
#  32245
#  33110
#  34257
#  36820
#  38880
#  40490
#  42177
#  43750
#  45370
#  46645
#  48135
#  50640
#  51660
#  52685
#  54542
#  55522
#  56695
#  58297
#  59317
#  61495
#  63730
#  65567
#  66912
#  68792
#  70540
#  72520
#  73812
#  75612
#  76992
#  78455
#  79792
#  81670
#  82720
#  85162
#  87445
#  89952
#
# Disc length: 1231 seconds
#
# Revision: 0
# Processed by: cddbd v1.4PL0 Copyright (c) Steve Scherf et al.
# Submitted via: AltoMP3_Maker 3.0
#
DISCID=b004cd34
DTITLE=Richard Daniels - Fifty Blues Moves
DYEAR=1900
DGENRE=
TTITLE0=Intro, Tuning, Move 1
TTITLE1=Move 2
TTITLE2=Move 3
TTITLE3=Move 4
TTITLE4=Move 5
TTITLE5=Move 6
TTITLE6=Move 7
TTITLE7=Move 8
TTITLE8=Move 9
TTITLE9=Move 10
TTITLE10=Move 11
TTITLE11=Move 12
TTITLE12=Move 13
TTITLE13=Move 14
TTITLE14=Move 15
TTITLE15=Move 16
TTITLE16=Move 17
TTITLE17=Move 18
TTITLE18=Move 19
TTITLE19=Move 20
TTITLE20=Move 21
TTITLE21=Move 22
TTITLE22=Move 23
TTITLE23=Move 24
TTITLE24=Move 25
TTITLE25=Move 26
TTITLE26=Move 27
TTITLE27=Move 28
TTITLE28=Move 29
TTITLE29=Move 30
TTITLE30=Move 31
TTITLE31=Move 32
TTITLE32=Move 33
TTITLE33=Move 34
TTITLE34=Move 35
TTITLE35=Move 36
TTITLE36=Move 37
TTITLE37=Move 38
TTITLE38=Move 39
TTITLE39=Move 40
TTITLE40=Move 41
TTITLE41=Move 42
TTITLE42=Move 43
TTITLE43=Move 44
TTITLE44=Move 45
TTITLE45=Move 46
TTITLE46=Move 47
TTITLE47=Move 48
TTITLE48=Move 49
TTITLE49=Move 50
TTITLE50=Play 1
TTITLE51=Play 2
EXTD=
EXTT0=
EXTT1=
EXTT2=
EXTT3=
EXTT4=
EXTT5=
EXTT6=
EXTT7=
EXTT8=
EXTT9=
EXTT10=
EXTT11=
EXTT12=
EXTT13=
EXTT14=
EXTT15=
EXTT16=
EXTT17=
EXTT18=
EXTT19=
EXTT20=
EXTT21=
EXTT22=
EXTT23=
EXTT24=
EXTT25=
EXTT26=
EXTT27=
EXTT28=
EXTT29=
EXTT30=
EXTT31=
EXTT32=
EXTT33=
EXTT34=
EXTT35=
EXTT36=
EXTT37=
EXTT38=
EXTT39=
EXTT40=
EXTT41=
EXTT42=
EXTT43=
EXTT44=
EXTT45=
EXTT46=
EXTT47=
EXTT48=
EXTT49=
EXTT50=
EXTT51=
PLAYORDER=
